HIERARCHY
ROOT Hips
{
	OFFSET 49.049500 22.792786 95.190498
	CHANNELS 6 Xposition Yposition Zposition Xrotation Yrotation Zrotation
	JOINT spine
	{
		OFFSET 0.000000 -0.458069 7.965683
		CHANNELS 3 Xrotation Yrotation Zrotation
		JOINT spine1
		{
			OFFSET 0.000000 -0.000002 10.243103
			CHANNELS 3 Xrotation Yrotation Zrotation
			JOINT spine2
			{
				OFFSET 0.000000 -0.000002 9.814751
				CHANNELS 3 Xrotation Yrotation Zrotation
				JOINT Neck
				{
					OFFSET 0.000000 -1.201384 25.198593
					CHANNELS 3 Xrotation Yrotation Zrotation
					JOINT Head
					{
						OFFSET 0.000000 0.000000 7.613144
						CHANNELS 3 Xrotation Yrotation Zrotation
						End Site
						{
							OFFSET 0.000000 6.077326 18.428101
						}
					}
				}
				JOINT RightShoulder
				{
					OFFSET -4.132698 0.575451 10.599197
					CHANNELS 3 Xrotation Yrotation Zrotation
					JOINT RightArm
					{
						OFFSET 0.000000 -0.000004 13.901794
						CHANNELS 3 Xrotation Yrotation Zrotation
						JOINT RightArmRoll
						{
							OFFSET 0.000000 0.000000 7.017883
							CHANNELS 3 Xrotation Yrotation Zrotation
							JOINT RightForeArm
							{
								OFFSET 0.000000 -0.000004 20.440598
								CHANNELS 3 Xrotation Yrotation Zrotation
								JOINT RightForeArmRoll
								{
									OFFSET 0.000000 -0.000002 7.875153
									CHANNELS 3 Xrotation Yrotation Zrotation
									JOINT RightHand
									{
										OFFSET 0.000000 -0.000002 15.803696
										CHANNELS 3 Xrotation Yrotation Zrotation
										End Site
										{
											OFFSET 0.000000 0.000000 0.100006
										}
									}
								}
							}
						}
					}
				}
				JOINT LeftShoulder
				{
					OFFSET 4.132698 0.575451 10.599197
					CHANNELS 3 Xrotation Yrotation Zrotation
					JOINT LeftArm
					{
						OFFSET 0.000000 -0.000004 13.901794
						CHANNELS 3 Xrotation Yrotation Zrotation
						JOINT LeftArmRoll
						{
							OFFSET 0.000000 0.000000 7.017883
							CHANNELS 3 Xrotation Yrotation Zrotation
							JOINT LeftForeArm
							{
								OFFSET 0.000000 -0.000004 20.440598
								CHANNELS 3 Xrotation Yrotation Zrotation
								JOINT LeftForeArmRoll
								{
									OFFSET 0.000000 -0.000002 7.875153
									CHANNELS 3 Xrotation Yrotation Zrotation
									JOINT LeftHand
									{
										OFFSET 0.000000 -0.000002 15.803696
										CHANNELS 3 Xrotation Yrotation Zrotation
										End Site
										{
											OFFSET 0.000000 0.000000 0.100006
										}
									}
								}
							}
						}
					}
				}
			}
		}
	}
	JOINT RightUpLeg
	{
		OFFSET -7.060478 1.086100 -1.294693
		CHANNELS 3 Xrotation Yrotation Zrotation
		JOINT RightUpLegRoll
		{
			OFFSET 0.000000 -0.000004 18.530800
			CHANNELS 3 Xrotation Yrotation Zrotation
			JOINT RightLeg
			{
				OFFSET 0.000000 0.000004 -22.947601
				CHANNELS 3 Xrotation Yrotation Zrotation
				JOINT RightLegRoll
				{
					OFFSET 0.000000 -0.000004 23.022598
					CHANNELS 3 Xrotation Yrotation Zrotation
					JOINT RightFoot
					{
						OFFSET 0.000000 -0.000002 19.162491
						CHANNELS 3 Xrotation Yrotation Zrotation
						JOINT RightToeBase
						{
							OFFSET 0.000000 -0.000004 16.018799
							CHANNELS 3 Xrotation Yrotation Zrotation
							End Site
							{
								OFFSET 0.006790 0.894207 7.757812
							}
						}
					}
				}
			}
		}
	}
	JOINT LeftUpLeg
	{
		OFFSET 7.060478 1.086100 -1.294693
		CHANNELS 3 Xrotation Yrotation Zrotation
		JOINT LeftUpLegRoll
		{
			OFFSET 0.000000 -0.000004 18.530899
			CHANNELS 3 Xrotation Yrotation Zrotation
			JOINT LeftLeg
			{
				OFFSET 0.000000 -0.000004 22.947487
				CHANNELS 3 Xrotation Yrotation Zrotation
				JOINT LeftLegRoll
				{
					OFFSET 0.000000 -0.000004 23.235504
					CHANNELS 3 Xrotation Yrotation Zrotation
					JOINT LeftFoot
					{
						OFFSET 0.000000 -0.000002 18.949600
						CHANNELS 3 Xrotation Yrotation Zrotation
						JOINT LeftToeBase
						{
							OFFSET 0.000000 -0.000004 16.018799
							CHANNELS 3 Xrotation Yrotation Zrotation
							End Site
							{
								OFFSET -0.030430 0.894207 7.757812
							}
						}
					}
				}
			}
		}
	}
}
MOTION
Frames: 10
Frame Time: 0.041667
49.436703 -11.760017 95.603706 -3.288658 1.603377 -0.508670 -1.549670 -0.417902 0.008555 0.902977 -0.841293 0.010825 2.548124 -0.841181 0.020864 20.520899 -1.474878 -0.604680 -2.621455 1.113464 -0.727757 5.155217 -70.309339 4.315591 -62.410246 -111.802663 -37.850255 -0.000004 -0.000002 0.000001 0.022982 -2.483820 -0.371416 0.000001 0.000008 -3.079401 -5.000175 -7.999827 0.000036 0.561171 68.672170 0.558961 -53.330394 112.787453 29.726947 0.000004 0.000000 -0.000005 0.948123 0.336928 -0.422115 -0.000001 0.000000 3.007949 -5.000163 8.000090 -0.000003 5.070901 -176.875248 -1.784443 -179.999991 0.000005 -1.252993 174.376929 -2.633281 -0.638176 -0.000003 -0.000002 0.102461 70.184565 6.940301 1.907979 26.127424 -7.345790 0.996575 2.164630 172.687167 -0.923281 -0.000020 -0.000005 -1.216370 -9.871368 1.927172 0.448963 -0.000005 -0.000000 -0.274624 72.769614 -6.880243 -1.878232 25.558513 7.344745 -0.150179 
49.437405 -11.768623 95.599709 -3.291309 1.603133 -0.506678 -1.547592 -0.416916 0.008485 0.906549 -0.839198 0.011101 2.551694 -0.839070 0.021113 20.509660 -1.491716 -0.607134 -2.609219 1.130997 -0.731977 5.125532 -70.319721 4.281496 -62.443953 -111.801809 -37.893118 -0.000005 -0.000002 -0.000000 0.022982 -2.494461 -0.371812 -0.000000 0.000008 -3.079271 -5.000171 -7.999828 0.000037 0.558403 68.642582 0.558595 -53.305641 112.816413 29.684142 0.000002 0.000000 -0.000004 0.903727 0.303082 -0.422527 -0.000002 -0.000001 3.007931 -5.000168 8.000089 -0.000006 5.070484 -176.874251 -1.778647 -179.999991 0.000005 -1.252993 174.362626 -2.639185 -0.638424 -0.000003 -0.000002 0.102570 70.189940 6.940169 1.908522 26.128634 -7.345785 0.999214 2.161952 172.688151 -0.921194 -0.000020 -0.000005 -1.216370 -9.885364 1.923524 0.449012 -0.000005 -0.000000 -0.275570 72.775399 -6.880105 -1.878156 25.559324 7.344752 -0.152019 
49.436504 -11.774723 95.597404 -3.293698 1.602929 -0.504836 -1.545550 -0.415887 0.008450 0.910000 -0.837028 0.011474 2.555143 -0.836880 0.021457 20.497830 -1.509723 -0.609536 -2.596586 1.149569 -0.736246 5.095014 -70.331414 4.246285 -62.481491 -111.801557 -37.940051 -0.000004 -0.000002 0.000001 0.022985 -2.505620 -0.372358 0.000001 0.000008 -3.079151 -5.000173 -7.999829 0.000037 0.555299 68.612385 0.558532 -53.277023 112.846500 29.638236 0.000004 0.000000 -0.000003 0.858443 0.269881 -0.423038 -0.000001 -0.000001 3.007910 -5.000167 8.000090 -0.000008 5.069894 -176.872270 -1.772593 -179.999991 0.000005 -1.252993 174.348720 -2.644097 -0.638546 -0.000002 -0.000002 0.102647 70.194899 6.940064 1.909093 26.129744 -7.345788 1.001841 2.158857 172.688137 -0.919054 -0.000020 -0.000004 -1.216370 -9.899492 1.919826 0.449045 -0.000004 -0.000001 -0.276547 72.781082 -6.880001 -1.877990 25.560134 7.344747 -0.153873 
49.434204 -11.781517 95.600601 -3.295920 1.602746 -0.503099 -1.543539 -0.414827 0.008441 0.913364 -0.834805 0.011913 2.558512 -0.834636 0.021868 20.485711 -1.528551 -0.611899 -2.583677 1.168871 -0.740553 5.063933 -70.344221 4.210316 -62.522261 -111.801550 -37.990520 -0.000003 -0.000001 0.000000 0.022984 -2.517151 -0.373012 -0.000000 0.000008 -3.079042 -5.000173 -7.999830 0.000036 0.551969 68.581793 0.558690 -53.246560 112.877195 29.591043 0.000003 0.000001 -0.000005 0.812523 0.237128 -0.423636 -0.000002 -0.000001 3.007878 -5.000168 8.000090 -0.000006 5.069161 -176.870262 -1.766416 -179.999991 0.000004 -1.252993 174.335073 -2.650017 -0.638770 -0.000001 -0.000002 0.102702 70.199557 6.940020 1.909593 26.130760 -7.345788 1.004451 2.155461 172.688110 -0.916850 -0.000020 -0.000004 -1.216370 -9.913707 1.916087 0.449065 -0.000006 -0.000000 -0.277545 72.786765 -6.879893 -1.877824 25.560941 7.344743 -0.155747 
49.431103 -11.787914 95.598206 -3.298029 1.602583 -0.501421 -1.541548 -0.413750 0.008447 0.916681 -0.832551 0.012391 2.561831 -0.832361 0.022316 20.473302 -1.547854 -0.614242 -2.570611 1.188583 -0.744886 5.032463 -70.357546 4.173844 -62.565926 -111.801529 -38.044096 -0.000005 -0.000001 0.000001 0.022985 -2.528870 -0.373728 0.000001 0.000008 -3.078941 -5.000174 -7.999827 0.000037 0.548509 68.550907 0.558959 -53.218095 112.907289 29.546367 0.000006 0.000001 -0.000004 0.766247 0.204631 -0.424308 -0.000003 -0.000001 3.007847 -5.000169 8.000090 -0.000005 5.068353 -176.868268 -1.760175 -179.999991 0.000005 -1.252993 174.321591 -2.655922 -0.639986 -0.000002 -0.000002 0.102744 70.204181 6.939874 1.910280 26.131867 -7.345791 1.007078 2.151893 172.688110 -0.914610 -0.000020 -0.000005 -1.216370 -9.927975 1.912340 0.449079 -0.000005 -0.000000 -0.278556 72.792352 -6.879823 -1.877571 25.561647 7.344745 -0.157620 
49.429802 -11.771622 95.649803 -3.300110 1.602420 -0.499759 -1.539562 -0.412668 0.008455 0.919986 -0.830290 0.012878 2.565139 -0.830078 0.022774 20.460894 -1.567263 -0.616596 -2.557519 1.208406 -0.749232 5.000858 -70.370961 4.137206 -62.609735 -111.801604 -38.097829 -0.000003 -0.000002 -0.000000 0.022984 -2.540661 -0.374455 0.000001 0.000008 -3.078849 -5.000176 -7.999827 0.000037 0.545029 68.520109 0.559246 -53.187837 112.937991 29.499946 0.000003 0.000000 -0.000004 0.719883 0.172203 -0.425036 -0.000003 -0.000001 3.007820 -5.000168 8.000090 -0.000005 5.067527 -176.866273 -1.753914 -179.999991 0.000005 -1.252993 174.308149 -2.661828 -0.640207 -0.000003 -0.000002 0.102783 70.208628 6.939823 1.910892 26.132876 -7.345791 1.009696 2.148265 172.689080 -0.912322 -0.000020 -0.000004 -1.216370 -9.942261 1.908592 0.449091 -0.000004 -0.000001 -0.279570 72.798034 -6.879716 -1.877405 25.562459 7.344752 -0.159509 
49.431103 -11.782722 95.642502 -3.302254 1.602247 -0.498067 -1.537559 -0.411596 0.008457 0.923314 -0.828043 0.013346 2.568468 -0.827811 0.023212 20.448587 -1.586439 -0.618963 -2.544491 1.228008 -0.753578 4.969400 -70.384164 4.100767 -62.650894 -111.801891 -38.148755 -0.000002 -0.000002 0.000002 0.022984 -2.552330 -0.375153 0.000001 0.000008 -3.078752 -5.000174 -7.999829 0.000037 0.541627 68.489326 0.559458 -53.157672 112.968692 29.453306 0.000004 0.000001 -0.000003 0.673700 0.139646 -0.425809 0.000001 -0.000001 3.007790 -5.000169 8.000090 -0.000008 5.066734 -176.865276 -1.747778 -179.999991 0.000005 -1.252993 174.294625 -2.667733 -0.640433 -0.000003 -0.000002 0.102828 70.213259 6.939710 1.911484 26.133887 -7.345792 1.012308 2.144739 172.689066 -0.910091 -0.000020 -0.000005 -1.216370 -9.956516 1.904845 0.449102 -0.000004 -0.000000 -0.280578 72.803628 -6.879640 -1.877249 25.563161 7.344752 -0.161370 
49.432003 -11.812119 95.600098 -3.304522 1.602053 -0.496299 -1.535537 -0.410544 0.008440 0.926704 -0.825835 0.013765 2.571856 -0.825583 0.023602 20.436573 -1.605035 -0.621366 -2.531672 1.247093 -0.757912 4.938301 -70.396547 4.064826 -62.691417 -111.801761 -38.198909 -0.000005 -0.000002 0.000001 0.022983 -2.563751 -0.375777 -0.000000 0.000008 -3.078639 -5.000175 -7.999828 0.000038 0.538399 68.458836 0.559506 -53.129490 112.998800 29.408302 0.000005 0.000001 -0.000003 0.627967 0.106768 -0.426608 -0.000002 -0.000001 3.007759 -5.000168 8.000090 -0.000005 5.066044 -176.863282 -1.741630 -179.999991 0.000005 -1.252993 174.280896 -2.673649 -0.640672 -0.000003 -0.000002 0.102889 70.218019 6.939630 1.912072 26.135003 -7.345786 1.014930 2.141423 172.689052 -0.907905 -0.000020 -0.000005 -1.216370 -9.970713 1.901127 0.449119 -0.000004 -0.000000 -0.281570 72.809297 -6.879535 -1.877084 25.563976 7.344747 -0.163245 
49.426304 -11.810719 95.613708 -3.306992 1.601840 -0.494413 -1.533488 -0.409528 0.008395 0.930192 -0.823687 0.014107 2.575346 -0.823416 0.023916 20.424853 -1.622683 -0.623841 -2.519153 1.265346 -0.762219 4.907794 -70.407810 4.029698 -62.728410 -111.801222 -38.245333 -0.000003 -0.000002 0.000003 0.022983 -2.574760 -0.376281 -0.000001 0.000009 -3.078509 -5.000173 -7.999829 0.000035 0.535450 68.428844 0.559292 -53.101552 113.028996 29.362625 0.000003 0.000001 -0.000003 0.582949 0.073382 -0.427423 -0.000002 -0.000001 3.007738 -5.000168 8.000090 -0.000005 5.065512 -176.861287 -1.735633 -179.999991 0.000005 -1.252993 174.266881 -2.679551 -0.641925 -0.000004 -0.000002 0.102976 70.223080 6.939523 1.912637 26.136113 -7.345789 1.017557 2.138453 172.690036 -0.905755 -0.000020 -0.000004 -1.216370 -9.984802 1.897441 0.449146 -0.000004 -0.000000 -0.282538 72.814994 -6.879451 -1.876822 25.564775 7.344747 -0.165100 
49.428303 -11.819118 95.600311 -3.309742 1.601585 -0.492359 -1.531388 -0.408559 0.008309 0.933812 -0.821623 0.014344 2.578965 -0.821335 0.024125 20.413820 -1.639043 -0.626381 -2.507067 1.282442 -0.766485 4.878144 -70.417543 3.995735 -62.759398 -111.800552 -38.285246 -0.000001 -0.000001 0.000003 0.022985 -2.585190 -0.376615 0.000003 0.000007 -3.078372 -5.000170 -7.999830 0.000035 0.532880 68.399447 0.558734 -53.077448 113.057997 29.319984 0.000004 0.000000 -0.000006 0.538920 0.039289 -0.428235 0.000001 -0.000001 3.007729 -5.000168 8.000090 -0.000004 5.065178 -176.859279 -1.729825 -179.999991 0.000005 -1.252993 174.252428 -2.684458 -0.642090 -0.000003 -0.000002 0.103097 70.228558 6.939390 1.913272 26.137321 -7.345786 1.020197 2.135950 172.690022 -0.903742 -0.000020 -0.000005 -1.216370 -9.998746 1.893804 0.449185 -0.000004 -0.000000 -0.283471 72.820786 -6.879332 -1.876749 25.565586 7.344751 -0.166929 
